<svg preserveAspectRatio="none" width="100%" height="100%" overflow="visible" style="display: block;" viewBox="0 0 13 13" fill="none" xmlns="http://www.w3.org/2000/svg">
<path id="Union" fill-rule="evenodd" clip-rule="evenodd" d="M6.7062 0C9.96428 0 12.6055 2.64119 12.6055 5.89927C12.6052 9.15711 9.96411 11.7985 6.7062 11.7985C5.44472 11.7985 4.27883 11.3977 3.31981 10.7233L1.41802 12.627L0 11.209L1.89787 9.30917C1.2134 8.34587 0.807041 7.17094 0.806938 5.89927C0.806938 2.64119 3.44813 0 6.7062 0ZM6.7062 2.00559C4.55579 2.00559 2.81253 3.74885 2.81253 5.89927C2.8128 8.04946 4.55595 9.79294 6.7062 9.79294C8.85646 9.79294 10.5996 8.04946 10.5999 5.89927C10.5999 3.74885 8.85662 2.00559 6.7062 2.00559Z" fill="var(--fill-0, #7E7E7E)"/>
</svg>
