<svg preserveAspectRatio="none" width="100%" height="100%" overflow="visible" style="display: block;" viewBox="0 0 115 49" fill="none" xmlns="http://www.w3.org/2000/svg">
<path id="Vector" fill-rule="evenodd" clip-rule="evenodd" d="M37.4631 0.186803C37.0002 0.399045 35.6395 1.94378 33.1629 5.06897C32.7589 5.57861 32.0584 6.40328 31.6062 6.90151C31.154 7.39973 30.3741 8.31515 29.8729 8.93584C29.3718 9.55653 28.2784 10.8783 27.4431 11.8733C25.1803 14.5689 24.2683 15.6668 23.0963 17.1066C22.5136 17.8223 21.9392 18.4418 21.8198 18.4829C21.6774 18.5321 20.0694 17.7993 17.1512 16.3554C13.49 14.5439 12.6228 14.1595 12.2657 14.1894C11.8386 14.2252 11.8626 14.2486 13.8074 15.6837C14.894 16.4855 16.6435 17.7816 17.6951 18.5637C18.7467 19.3459 20.0445 20.2888 20.579 20.6589C21.1136 21.0291 21.8657 21.5595 22.2506 21.8376C22.6353 22.1157 22.9688 22.3209 22.9917 22.2937C23.0144 22.2665 23.6189 21.3694 24.3348 20.3003C25.0509 19.2312 26.6332 16.8804 27.8512 15.0763C29.0692 13.2722 31.3719 9.85527 32.9683 7.4832C34.565 5.11112 36.3551 2.4663 36.9466 1.6058C37.5382 0.745288 38.005 0.0242509 37.9841 0.00323326C37.9633 -0.0176629 37.7288 0.0649499 37.4631 0.186803ZM0.0386005 9.25706C0.149763 9.7045 0.36808 9.93776 1.93043 11.2783C2.63203 11.8801 3.31541 12.4974 3.44904 12.6499C3.58268 12.8024 4.49324 13.6567 5.47257 14.5484C6.45189 15.4401 7.98265 16.8433 8.87426 17.6667C9.76587 18.49 11.045 19.6654 11.7169 20.2787C14.5698 22.883 17.3595 25.5121 17.3595 25.5961C17.3595 25.6459 17.0246 26.2516 16.6152 26.942C16.2058 27.6323 15.4621 28.9898 14.9626 29.9587C13.913 31.9942 12.7738 34.0685 12.5607 34.3323C12.456 34.4619 12.4464 34.6361 12.5278 34.9357L12.642 35.3568L13.3911 34.5552C13.8031 34.1143 15.2062 32.5095 16.5091 30.9888C17.8121 29.4681 19.4971 27.5208 20.2538 26.6612C21.0103 25.8016 21.6117 25.0201 21.5902 24.9247C21.5553 24.7702 20.7741 24.1662 16.3947 20.9077C15.766 20.44 15.0929 19.9604 14.8988 19.8418C14.5764 19.6449 12.2744 17.9435 7.45818 14.3427C5.75734 13.0711 0.431133 9.20142 0.0998326 8.99671C-0.011087 8.92819 -0.0266392 8.9944 0.0386005 9.25706ZM92.5427 12.4339C92.0643 12.9638 86.4868 20.3143 86.4868 20.4149C86.4868 20.452 87.4393 20.4825 88.6034 20.4825H90.7199L92.0317 18.8121C92.7531 17.8934 93.7475 16.6313 94.2415 16.0076L95.1397 14.8736L97.87 17.6781L100.6 20.4825H103.478H106.355L110.397 16.4343C113.428 13.3979 114.419 12.3351 114.36 12.1822C114.291 12.0021 114.034 11.9783 112.159 11.9783H110.035L106.821 15.1066C105.054 16.8273 103.562 18.2509 103.506 18.2703C103.45 18.2898 102.08 16.9132 100.461 15.2111C98.8425 13.5091 97.4371 12.0853 97.338 12.0474C97.239 12.0094 96.2122 11.9783 95.0561 11.9783H92.9541L92.5427 12.4339ZM46.3347 12.1758C45.0226 12.4342 44.6554 12.5376 43.9994 12.8337C41.9805 13.7449 41.0499 15.6966 41.0499 19.0196V20.4825H43.0545H45.0591L45.06 19.7232C45.0614 18.621 45.278 17.4551 45.5829 16.909C46.1253 15.938 47.0048 15.7462 50.9209 15.7452L53.6848 15.7445V13.9221V12.0998L50.1312 12.1139C48.1768 12.1216 46.4683 12.1495 46.3347 12.1758ZM55.5071 13.9007V15.7079L56.7684 15.7793C59.3096 15.9232 60.0022 16.6628 60.0022 19.2328C60.0022 20.0336 60.0473 20.3859 60.1552 20.4274C60.2392 20.4596 62.0432 20.4716 64.1639 20.4539L68.0198 20.4218L65.0885 16.68C63.4763 14.6221 61.9752 12.7996 61.7528 12.6298C61.2342 12.2343 60.3577 12.1238 57.6028 12.1066L55.5071 12.0936V13.9007ZM73.6767 12.3699C73.515 12.6007 73.4875 13.2086 73.4875 16.5612V20.4825H75.4921H77.4967V19.0854C77.4967 18.317 77.5376 17.6914 77.5878 17.6952C77.6379 17.6991 78.1596 18.3278 78.7473 19.0923L79.8156 20.4825H81.9971C83.1969 20.4825 84.1786 20.4613 84.1786 20.4354C84.1786 20.2456 78.0992 12.3734 77.8611 12.2547C77.6593 12.1542 76.9379 12.1028 75.7116 12.1016C73.9409 12.0999 73.8581 12.1107 73.6767 12.3699ZM33.1474 14.048C30.6361 16.7667 28.9519 18.6092 28.4873 19.1462C28.2272 19.4468 27.2708 20.4771 26.362 21.4355C24.5219 23.376 24.4195 23.5097 24.6638 23.6489C24.7558 23.7014 26.1773 24.7462 27.8227 25.9707C29.468 27.1952 31.8462 28.9475 33.1075 29.8646C35.61 31.6844 38.7523 34.0017 40.6329 35.4144C41.2918 35.9092 42.2155 36.578 42.6857 36.9006C43.1558 37.2231 44.3596 38.0892 45.361 38.8253C46.3623 39.5615 47.2233 40.1638 47.2744 40.1638C47.3256 40.1638 47.3674 40.0391 47.3674 39.8869C47.3674 39.6829 46.9443 39.2428 45.7619 38.2164C44.8788 37.4499 43.7171 36.4095 43.1802 35.9044C42.6434 35.3992 41.6574 34.4986 40.9892 33.9032C40.321 33.3076 39.6032 32.6497 39.394 32.4409C39.1849 32.2321 37.4902 30.7034 35.6279 29.0435C33.7657 27.3837 31.8866 25.6897 31.4523 25.2788C31.018 24.868 30.3346 24.2238 29.9337 23.8472L29.2047 23.1623L29.6406 22.3388C29.8805 21.8859 30.528 20.7225 31.0798 19.7536C31.6316 18.7847 32.3243 17.5085 32.6192 16.9176C32.9142 16.3266 33.4877 15.2748 33.8937 14.58C34.523 13.5033 34.6162 13.2695 34.5247 12.995C34.4195 12.6796 34.3915 12.7012 33.1474 14.048ZM41.052 23.8539C41.0545 25.5891 41.2738 26.7029 41.8387 27.8511C42.4858 29.1662 43.4248 29.8768 45.1303 30.3423C45.9944 30.5783 46.4761 30.6102 49.8883 30.6579L53.6848 30.7108V28.8947V27.0784L50.4957 27.0073C48.6384 26.9659 47.1048 26.8767 46.8235 26.794C46.2018 26.611 45.4883 25.8955 45.3125 25.2786C45.2367 25.0129 45.1405 24.2624 45.0985 23.6109L45.0224 22.4264H43.0361H41.0499L41.052 23.8539ZM59.9795 23.7931C59.94 24.8973 59.8798 25.2568 59.6661 25.6646C59.1765 26.599 58.6206 26.8364 56.5702 26.9868L55.5071 27.0648V28.8938V30.723L57.2991 30.6503C59.983 30.5417 61.3974 30.1057 62.4801 29.0535C63.561 28.0031 63.9951 26.6883 64.0968 24.1576L64.1664 22.4264H62.0974H60.0285L59.9795 23.7931ZM64.7624 22.639C64.8621 22.7558 66.1288 24.3645 67.5773 26.2135C69.0257 28.0626 70.3757 29.7144 70.5772 29.884C70.7789 30.0536 71.1471 30.2488 71.3956 30.3178C72.0118 30.489 75.6524 30.4804 76.1725 30.3066C76.7415 30.1165 77.2322 29.6304 77.3753 29.1152C77.4412 28.8776 77.4956 27.2754 77.4959 25.5547L77.4967 22.4264H75.4921H73.4875V24.4954C73.4875 26.1838 73.4553 26.5769 73.3127 26.6317C73.2165 26.6686 73.0571 26.6532 72.9583 26.5976C72.8597 26.5418 72.0613 25.5805 71.1843 24.4613L69.5899 22.4264H67.0855C64.7124 22.4264 64.5906 22.4375 64.7624 22.639ZM81.4587 22.5782C81.5074 22.6618 81.9207 23.2069 82.377 23.7896L83.2066 24.8492V27.5011C83.2066 29.4018 83.2479 30.1944 83.3524 30.2988C83.4522 30.3986 84.0443 30.4446 85.2269 30.4446C86.6363 30.4446 86.9907 30.4094 87.1464 30.2538C87.308 30.0921 87.3376 29.659 87.3399 27.4292L87.3425 24.7954L88.0137 23.945C88.3829 23.4772 88.7955 22.9441 88.9306 22.7605L89.1761 22.4264H85.273C82.1843 22.4264 81.3884 22.4581 81.4587 22.5782ZM95.5378 26.0719C92.9964 28.6918 92.0146 29.7817 92.0146 29.9831V30.2624L94.1407 30.2997L96.2667 30.3369L99.7547 26.7765L103.243 23.216L104.796 24.7961C105.651 25.6651 107.218 27.2642 108.279 28.3497L110.208 30.3231H112.427C114.371 30.3231 114.656 30.2985 114.723 30.1241C114.827 29.8518 114.714 29.723 110.967 25.8445L107.687 22.4493L103.374 22.4446L99.061 22.4398L95.5378 26.0719ZM22.8511 27.1416C22.5081 27.6552 21.3919 29.3161 20.3707 30.8323C19.3493 32.3485 18.377 33.8073 18.21 34.0742C18.0429 34.3412 17.0026 35.8888 15.898 37.5135C14.7936 39.1382 13.7275 40.728 13.529 41.0463C13.3306 41.3647 12.2862 42.9228 11.2082 44.5087C10.1302 46.0947 9.07921 47.6793 8.87268 48.0302C8.50238 48.6591 8.50093 48.668 8.76844 48.668C8.91775 48.668 9.10144 48.5694 9.17677 48.4488C9.25197 48.3282 10.2355 47.1248 11.3624 45.7745C12.4892 44.4241 13.6572 43.023 13.9579 42.6607C14.2585 42.2985 15.2172 41.1647 16.0883 40.1413C16.9592 39.118 17.924 37.9505 18.2321 37.547C18.5401 37.1435 19.2231 36.3235 19.7497 35.7247C20.9008 34.4159 22.6386 32.3384 23.5555 31.1749C23.923 30.7085 24.3419 30.2941 24.4863 30.2539C24.6745 30.2014 26.1444 30.8542 29.6798 32.5602C34.0709 34.6793 35.2325 35.1598 35.2126 34.8486C35.2093 34.7984 34.321 34.1126 33.2384 33.3244C32.1558 32.5362 30.368 31.2146 29.2655 30.3878C28.163 29.5608 26.7415 28.5252 26.1068 28.0864C25.472 27.6476 24.6201 27.0452 24.2137 26.748L23.4747 26.2075L22.8511 27.1416Z" fill="var(--fill-0, black)"/>
</svg>
